{
	"asset":{
		"generator":"Khronos glTF Blender I/O v5.1.20",
		"version":"2.0"
	},
	"scene":0,
	"scenes":[
		{
			"name":"Scene",
			"nodes":[
				0
			]
		}
	],
	"nodes":[
		{
			"mesh":0,
			"name":"castle"
		}
	],
	"meshes":[
		{
			"name":"castle",
			"primitives":[
				{
					"attributes":{
						"POSITION":0,
						"NORMAL":1,
						"TEXCOORD_0":2
					},
					"indices":3
				}
			]
		}
	],
	"accessors":[
		{
			"bufferView":0,
			"componentType":5126,
			"count":12252,
			"max":[
				23.990005493164062,
				30.900007247924805,
				16.34000587463379
			],
			"min":[
				-18.23000144958496,
				-0.019999122247099876,
				-16.34000015258789
			],
			"type":"VEC3"
		},
		{
			"bufferView":1,
			"componentType":5126,
			"count":12252,
			"type":"VEC3"
		},
		{
			"bufferView":2,
			"componentType":5126,
			"count":12252,
			"type":"VEC2"
		},
		{
			"bufferView":3,
			"componentType":5123,
			"count":21504,
			"type":"SCALAR"
		}
	],
	"bufferViews":[
		{
			"buffer":0,
			"byteLength":147024,
			"byteOffset":0,
			"target":34962
		},
		{
			"buffer":0,
			"byteLength":147024,
			"byteOffset":147024,
			"target":34962
		},
		{
			"buffer":0,
			"byteLength":98016,
			"byteOffset":294048,
			"target":34962
		},
		{
			"buffer":0,
			"byteLength":43008,
			"byteOffset":392064,
			"target":34963
		}
	],
	"buffers":[
		{
			"byteLength":435072,
			"uri":"castle.bin"
		}
	]
}
