{
	"asset":{
		"generator":"Khronos glTF Blender I/O v5.1.20",
		"version":"2.0"
	},
	"scene":0,
	"scenes":[
		{
			"name":"Scene",
			"nodes":[
				13
			]
		}
	],
	"nodes":[
		{
			"name":"socket_hat",
			"rotation":[
				-0.015426602214574814,
				-6.647139372262245e-08,
				-2.944409160932082e-09,
				0.9998810291290283
			],
			"scale":[
				1,
				0.9999999403953552,
				0.9999999403953552
			],
			"translation":[
				-2.1898917401674822e-10,
				1.0235595703125,
				0.0008509133476763964
			]
		},
		{
			"children":[
				0
			],
			"name":"body_up",
			"rotation":[
				0.019301887601614,
				6.417788256385393e-08,
				3.724618169442806e-09,
				0.9998137354850769
			],
			"scale":[
				1,
				0.9999999403953552,
				1
			],
			"translation":[
				1.6341095143701523e-15,
				0.6505753397941589,
				-4.656612873077393e-10
			]
		},
		{
			"name":"hand_L",
			"rotation":[
				0.017861880362033844,
				-0.015535925514996052,
				-0.7689737677574158,
				0.6388418674468994
			],
			"scale":[
				1,
				0.9999999403953552,
				1
			],
			"translation":[
				0.7968049645423889,
				0.5698889493942261,
				-0.0006253548199310899
			]
		},
		{
			"name":"hand_R",
			"rotation":[
				0.017861783504486084,
				0.015535932034254074,
				0.7689738869667053,
				0.6388417482376099
			],
			"translation":[
				-0.7968047857284546,
				0.5698888301849365,
				-0.0006255389889702201
			]
		},
		{
			"children":[
				1,
				2,
				3
			],
			"name":"body_low",
			"rotation":[
				-0.7092543244361877,
				3.401630965527147e-05,
				3.413239392102696e-05,
				0.7049527764320374
			],
			"scale":[
				1,
				0.9999999403953552,
				0.9999999403953552
			],
			"translation":[
				1.3961772276499529e-12,
				0.8825382590293884,
				1.6847479855641723e-08
			]
		},
		{
			"name":"leg_L",
			"rotation":[
				5.473306430303637e-08,
				1.302469172514975e-07,
				-0.750026524066925,
				0.6614077687263489
			],
			"translation":[
				3.0416064333849135e-08,
				0.5431552529335022,
				-1.0307603659498454e-09
			]
		},
		{
			"children":[
				5
			],
			"name":"hip_L",
			"rotation":[
				-0.5607951283454895,
				-0.4297378361225128,
				-0.4304555356502533,
				0.5617314577102661
			],
			"scale":[
				0.9999999403953552,
				0.9999998807907104,
				0.9999999403953552
			],
			"translation":[
				4.083155591416698e-09,
				0.8825382590293884,
				1.6847087280780215e-08
			]
		},
		{
			"name":"leg_R",
			"rotation":[
				-9.105094456174356e-09,
				-2.8220840775361467e-08,
				0.7500264048576355,
				0.6614078879356384
			],
			"translation":[
				5.17642106956373e-09,
				0.5431551933288574,
				9.80143965989555e-10
			]
		},
		{
			"children":[
				7
			],
			"name":"hip_R",
			"rotation":[
				-0.5607535243034363,
				0.42979198694229126,
				0.43050965666770935,
				0.5616901516914368
			],
			"scale":[
				1,
				0.9999999403953552,
				0.9999999403953552
			],
			"translation":[
				4.085149107879715e-09,
				0.8825382590293884,
				1.6847087280780215e-08
			]
		},
		{
			"children":[
				4,
				6,
				8
			],
			"name":"root",
			"rotation":[
				0.706516683101654,
				-3.410306089790538e-05,
				-3.404620656510815e-05,
				0.7076964378356934
			],
			"scale":[
				1,
				1,
				0.9999999403953552
			],
			"translation":[
				5.934866708601794e-17,
				0.18659354746341705,
				-0.9127954840660095
			]
		},
		{
			"name":"socket_hand_L",
			"rotation":[
				-0.00033659953624010086,
				-0.02827599085867405,
				-0.011897625401616096,
				0.9995293021202087
			],
			"scale":[
				0.9999999403953552,
				0.9999999403953552,
				1
			],
			"translation":[
				1.3111979961395264,
				0.6621145606040955,
				-0.010086297988891602
			]
		},
		{
			"name":"socket_hand_R",
			"rotation":[
				-0.00033659953624010086,
				0.02827599085867405,
				0.011897625401616096,
				0.9995293021202087
			],
			"scale":[
				0.9999999403953552,
				0.9999999403953552,
				1
			],
			"translation":[
				-1.3111979961395264,
				0.6621145606040955,
				-0.010086297988891602
			]
		},
		{
			"mesh":0,
			"name":"1_body",
			"skin":0
		},
		{
			"children":[
				12,
				9,
				10,
				11
			],
			"name":"Armature"
		}
	],
	"animations":[
		{
			"channels":[
				{
					"sampler":0,
					"target":{
						"node":9,
						"path":"translation"
					}
				},
				{
					"sampler":1,
					"target":{
						"node":9,
						"path":"rotation"
					}
				},
				{
					"sampler":2,
					"target":{
						"node":9,
						"path":"scale"
					}
				},
				{
					"sampler":3,
					"target":{
						"node":4,
						"path":"translation"
					}
				},
				{
					"sampler":4,
					"target":{
						"node":4,
						"path":"rotation"
					}
				},
				{
					"sampler":5,
					"target":{
						"node":4,
						"path":"scale"
					}
				},
				{
					"sampler":6,
					"target":{
						"node":1,
						"path":"translation"
					}
				},
				{
					"sampler":7,
					"target":{
						"node":1,
						"path":"rotation"
					}
				},
				{
					"sampler":8,
					"target":{
						"node":1,
						"path":"scale"
					}
				},
				{
					"sampler":9,
					"target":{
						"node":0,
						"path":"translation"
					}
				},
				{
					"sampler":10,
					"target":{
						"node":0,
						"path":"rotation"
					}
				},
				{
					"sampler":11,
					"target":{
						"node":0,
						"path":"scale"
					}
				},
				{
					"sampler":12,
					"target":{
						"node":2,
						"path":"translation"
					}
				},
				{
					"sampler":13,
					"target":{
						"node":2,
						"path":"rotation"
					}
				},
				{
					"sampler":14,
					"target":{
						"node":2,
						"path":"scale"
					}
				},
				{
					"sampler":15,
					"target":{
						"node":3,
						"path":"translation"
					}
				},
				{
					"sampler":16,
					"target":{
						"node":3,
						"path":"rotation"
					}
				},
				{
					"sampler":17,
					"target":{
						"node":3,
						"path":"scale"
					}
				},
				{
					"sampler":18,
					"target":{
						"node":6,
						"path":"translation"
					}
				},
				{
					"sampler":19,
					"target":{
						"node":6,
						"path":"rotation"
					}
				},
				{
					"sampler":20,
					"target":{
						"node":6,
						"path":"scale"
					}
				},
				{
					"sampler":21,
					"target":{
						"node":5,
						"path":"translation"
					}
				},
				{
					"sampler":22,
					"target":{
						"node":5,
						"path":"rotation"
					}
				},
				{
					"sampler":23,
					"target":{
						"node":5,
						"path":"scale"
					}
				},
				{
					"sampler":24,
					"target":{
						"node":8,
						"path":"translation"
					}
				},
				{
					"sampler":25,
					"target":{
						"node":8,
						"path":"rotation"
					}
				},
				{
					"sampler":26,
					"target":{
						"node":8,
						"path":"scale"
					}
				},
				{
					"sampler":27,
					"target":{
						"node":7,
						"path":"translation"
					}
				},
				{
					"sampler":28,
					"target":{
						"node":7,
						"path":"rotation"
					}
				},
				{
					"sampler":29,
					"target":{
						"node":7,
						"path":"scale"
					}
				},
				{
					"sampler":30,
					"target":{
						"node":10,
						"path":"translation"
					}
				},
				{
					"sampler":31,
					"target":{
						"node":10,
						"path":"rotation"
					}
				},
				{
					"sampler":32,
					"target":{
						"node":10,
						"path":"scale"
					}
				},
				{
					"sampler":33,
					"target":{
						"node":11,
						"path":"translation"
					}
				},
				{
					"sampler":34,
					"target":{
						"node":11,
						"path":"rotation"
					}
				},
				{
					"sampler":35,
					"target":{
						"node":11,
						"path":"scale"
					}
				}
			],
			"name":"0_pose",
			"samplers":[
				{
					"input":7,
					"interpolation":"STEP",
					"output":8
				},
				{
					"input":7,
					"interpolation":"STEP",
					"output":9
				},
				{
					"input":7,
					"interpolation":"STEP",
					"output":10
				},
				{
					"input":7,
					"interpolation":"STEP",
					"output":11
				},
				{
					"input":7,
					"interpolation":"STEP",
					"output":12
				},
				{
					"input":7,
					"interpolation":"STEP",
					"output":13
				},
				{
					"input":7,
					"interpolation":"STEP",
					"output":14
				},
				{
					"input":7,
					"interpolation":"STEP",
					"output":15
				},
				{
					"input":7,
					"interpolation":"STEP",
					"output":16
				},
				{
					"input":7,
					"interpolation":"STEP",
					"output":17
				},
				{
					"input":7,
					"interpolation":"STEP",
					"output":18
				},
				{
					"input":7,
					"interpolation":"STEP",
					"output":19
				},
				{
					"input":7,
					"interpolation":"STEP",
					"output":20
				},
				{
					"input":7,
					"interpolation":"STEP",
					"output":21
				},
				{
					"input":7,
					"interpolation":"STEP",
					"output":22
				},
				{
					"input":7,
					"interpolation":"STEP",
					"output":23
				},
				{
					"input":7,
					"interpolation":"STEP",
					"output":24
				},
				{
					"input":7,
					"interpolation":"STEP",
					"output":25
				},
				{
					"input":7,
					"interpolation":"STEP",
					"output":26
				},
				{
					"input":7,
					"interpolation":"STEP",
					"output":27
				},
				{
					"input":7,
					"interpolation":"STEP",
					"output":28
				},
				{
					"input":7,
					"interpolation":"STEP",
					"output":29
				},
				{
					"input":7,
					"interpolation":"STEP",
					"output":30
				},
				{
					"input":7,
					"interpolation":"STEP",
					"output":31
				},
				{
					"input":7,
					"interpolation":"STEP",
					"output":32
				},
				{
					"input":7,
					"interpolation":"STEP",
					"output":33
				},
				{
					"input":7,
					"interpolation":"STEP",
					"output":34
				},
				{
					"input":7,
					"interpolation":"STEP",
					"output":35
				},
				{
					"input":7,
					"interpolation":"STEP",
					"output":36
				},
				{
					"input":7,
					"interpolation":"STEP",
					"output":37
				},
				{
					"input":7,
					"interpolation":"STEP",
					"output":38
				},
				{
					"input":7,
					"interpolation":"STEP",
					"output":39
				},
				{
					"input":7,
					"interpolation":"STEP",
					"output":40
				},
				{
					"input":7,
					"interpolation":"STEP",
					"output":41
				},
				{
					"input":7,
					"interpolation":"STEP",
					"output":42
				},
				{
					"input":7,
					"interpolation":"STEP",
					"output":40
				}
			]
		},
		{
			"channels":[
				{
					"sampler":0,
					"target":{
						"node":9,
						"path":"translation"
					}
				},
				{
					"sampler":1,
					"target":{
						"node":9,
						"path":"rotation"
					}
				},
				{
					"sampler":2,
					"target":{
						"node":9,
						"path":"scale"
					}
				},
				{
					"sampler":3,
					"target":{
						"node":4,
						"path":"translation"
					}
				},
				{
					"sampler":4,
					"target":{
						"node":4,
						"path":"rotation"
					}
				},
				{
					"sampler":5,
					"target":{
						"node":4,
						"path":"scale"
					}
				},
				{
					"sampler":6,
					"target":{
						"node":1,
						"path":"translation"
					}
				},
				{
					"sampler":7,
					"target":{
						"node":1,
						"path":"rotation"
					}
				},
				{
					"sampler":8,
					"target":{
						"node":1,
						"path":"scale"
					}
				},
				{
					"sampler":9,
					"target":{
						"node":0,
						"path":"translation"
					}
				},
				{
					"sampler":10,
					"target":{
						"node":0,
						"path":"rotation"
					}
				},
				{
					"sampler":11,
					"target":{
						"node":0,
						"path":"scale"
					}
				},
				{
					"sampler":12,
					"target":{
						"node":2,
						"path":"translation"
					}
				},
				{
					"sampler":13,
					"target":{
						"node":2,
						"path":"rotation"
					}
				},
				{
					"sampler":14,
					"target":{
						"node":2,
						"path":"scale"
					}
				},
				{
					"sampler":15,
					"target":{
						"node":3,
						"path":"translation"
					}
				},
				{
					"sampler":16,
					"target":{
						"node":3,
						"path":"rotation"
					}
				},
				{
					"sampler":17,
					"target":{
						"node":3,
						"path":"scale"
					}
				},
				{
					"sampler":18,
					"target":{
						"node":6,
						"path":"translation"
					}
				},
				{
					"sampler":19,
					"target":{
						"node":6,
						"path":"rotation"
					}
				},
				{
					"sampler":20,
					"target":{
						"node":6,
						"path":"scale"
					}
				},
				{
					"sampler":21,
					"target":{
						"node":5,
						"path":"translation"
					}
				},
				{
					"sampler":22,
					"target":{
						"node":5,
						"path":"rotation"
					}
				},
				{
					"sampler":23,
					"target":{
						"node":5,
						"path":"scale"
					}
				},
				{
					"sampler":24,
					"target":{
						"node":8,
						"path":"translation"
					}
				},
				{
					"sampler":25,
					"target":{
						"node":8,
						"path":"rotation"
					}
				},
				{
					"sampler":26,
					"target":{
						"node":8,
						"path":"scale"
					}
				},
				{
					"sampler":27,
					"target":{
						"node":7,
						"path":"translation"
					}
				},
				{
					"sampler":28,
					"target":{
						"node":7,
						"path":"rotation"
					}
				},
				{
					"sampler":29,
					"target":{
						"node":7,
						"path":"scale"
					}
				},
				{
					"sampler":30,
					"target":{
						"node":10,
						"path":"translation"
					}
				},
				{
					"sampler":31,
					"target":{
						"node":10,
						"path":"rotation"
					}
				},
				{
					"sampler":32,
					"target":{
						"node":10,
						"path":"scale"
					}
				},
				{
					"sampler":33,
					"target":{
						"node":11,
						"path":"translation"
					}
				},
				{
					"sampler":34,
					"target":{
						"node":11,
						"path":"rotation"
					}
				},
				{
					"sampler":35,
					"target":{
						"node":11,
						"path":"scale"
					}
				}
			],
			"name":"1_idle",
			"samplers":[
				{
					"input":43,
					"interpolation":"STEP",
					"output":8
				},
				{
					"input":43,
					"interpolation":"STEP",
					"output":9
				},
				{
					"input":43,
					"interpolation":"STEP",
					"output":10
				},
				{
					"input":43,
					"interpolation":"STEP",
					"output":11
				},
				{
					"input":44,
					"interpolation":"LINEAR",
					"output":45
				},
				{
					"input":43,
					"interpolation":"STEP",
					"output":13
				},
				{
					"input":43,
					"interpolation":"STEP",
					"output":14
				},
				{
					"input":44,
					"interpolation":"LINEAR",
					"output":46
				},
				{
					"input":43,
					"interpolation":"STEP",
					"output":16
				},
				{
					"input":43,
					"interpolation":"STEP",
					"output":17
				},
				{
					"input":43,
					"interpolation":"STEP",
					"output":18
				},
				{
					"input":43,
					"interpolation":"STEP",
					"output":19
				},
				{
					"input":43,
					"interpolation":"STEP",
					"output":47
				},
				{
					"input":43,
					"interpolation":"STEP",
					"output":48
				},
				{
					"input":43,
					"interpolation":"STEP",
					"output":49
				},
				{
					"input":43,
					"interpolation":"STEP",
					"output":50
				},
				{
					"input":43,
					"interpolation":"STEP",
					"output":51
				},
				{
					"input":43,
					"interpolation":"STEP",
					"output":52
				},
				{
					"input":43,
					"interpolation":"STEP",
					"output":26
				},
				{
					"input":43,
					"interpolation":"STEP",
					"output":27
				},
				{
					"input":43,
					"interpolation":"STEP",
					"output":28
				},
				{
					"input":43,
					"interpolation":"STEP",
					"output":29
				},
				{
					"input":43,
					"interpolation":"STEP",
					"output":30
				},
				{
					"input":43,
					"interpolation":"STEP",
					"output":31
				},
				{
					"input":43,
					"interpolation":"STEP",
					"output":32
				},
				{
					"input":43,
					"interpolation":"STEP",
					"output":33
				},
				{
					"input":43,
					"interpolation":"STEP",
					"output":34
				},
				{
					"input":43,
					"interpolation":"STEP",
					"output":35
				},
				{
					"input":43,
					"interpolation":"STEP",
					"output":36
				},
				{
					"input":43,
					"interpolation":"STEP",
					"output":37
				},
				{
					"input":44,
					"interpolation":"LINEAR",
					"output":53
				},
				{
					"input":43,
					"interpolation":"STEP",
					"output":54
				},
				{
					"input":43,
					"interpolation":"STEP",
					"output":55
				},
				{
					"input":44,
					"interpolation":"LINEAR",
					"output":56
				},
				{
					"input":43,
					"interpolation":"STEP",
					"output":57
				},
				{
					"input":43,
					"interpolation":"STEP",
					"output":58
				}
			]
		},
		{
			"channels":[
				{
					"sampler":0,
					"target":{
						"node":9,
						"path":"translation"
					}
				},
				{
					"sampler":1,
					"target":{
						"node":9,
						"path":"rotation"
					}
				},
				{
					"sampler":2,
					"target":{
						"node":9,
						"path":"scale"
					}
				},
				{
					"sampler":3,
					"target":{
						"node":4,
						"path":"translation"
					}
				},
				{
					"sampler":4,
					"target":{
						"node":4,
						"path":"rotation"
					}
				},
				{
					"sampler":5,
					"target":{
						"node":4,
						"path":"scale"
					}
				},
				{
					"sampler":6,
					"target":{
						"node":1,
						"path":"translation"
					}
				},
				{
					"sampler":7,
					"target":{
						"node":1,
						"path":"rotation"
					}
				},
				{
					"sampler":8,
					"target":{
						"node":1,
						"path":"scale"
					}
				},
				{
					"sampler":9,
					"target":{
						"node":0,
						"path":"translation"
					}
				},
				{
					"sampler":10,
					"target":{
						"node":0,
						"path":"rotation"
					}
				},
				{
					"sampler":11,
					"target":{
						"node":0,
						"path":"scale"
					}
				},
				{
					"sampler":12,
					"target":{
						"node":2,
						"path":"translation"
					}
				},
				{
					"sampler":13,
					"target":{
						"node":2,
						"path":"rotation"
					}
				},
				{
					"sampler":14,
					"target":{
						"node":2,
						"path":"scale"
					}
				},
				{
					"sampler":15,
					"target":{
						"node":3,
						"path":"translation"
					}
				},
				{
					"sampler":16,
					"target":{
						"node":3,
						"path":"rotation"
					}
				},
				{
					"sampler":17,
					"target":{
						"node":3,
						"path":"scale"
					}
				},
				{
					"sampler":18,
					"target":{
						"node":6,
						"path":"translation"
					}
				},
				{
					"sampler":19,
					"target":{
						"node":6,
						"path":"rotation"
					}
				},
				{
					"sampler":20,
					"target":{
						"node":6,
						"path":"scale"
					}
				},
				{
					"sampler":21,
					"target":{
						"node":5,
						"path":"translation"
					}
				},
				{
					"sampler":22,
					"target":{
						"node":5,
						"path":"rotation"
					}
				},
				{
					"sampler":23,
					"target":{
						"node":5,
						"path":"scale"
					}
				},
				{
					"sampler":24,
					"target":{
						"node":8,
						"path":"translation"
					}
				},
				{
					"sampler":25,
					"target":{
						"node":8,
						"path":"rotation"
					}
				},
				{
					"sampler":26,
					"target":{
						"node":8,
						"path":"scale"
					}
				},
				{
					"sampler":27,
					"target":{
						"node":7,
						"path":"translation"
					}
				},
				{
					"sampler":28,
					"target":{
						"node":7,
						"path":"rotation"
					}
				},
				{
					"sampler":29,
					"target":{
						"node":7,
						"path":"scale"
					}
				},
				{
					"sampler":30,
					"target":{
						"node":10,
						"path":"translation"
					}
				},
				{
					"sampler":31,
					"target":{
						"node":10,
						"path":"rotation"
					}
				},
				{
					"sampler":32,
					"target":{
						"node":10,
						"path":"scale"
					}
				},
				{
					"sampler":33,
					"target":{
						"node":11,
						"path":"translation"
					}
				},
				{
					"sampler":34,
					"target":{
						"node":11,
						"path":"rotation"
					}
				},
				{
					"sampler":35,
					"target":{
						"node":11,
						"path":"scale"
					}
				}
			],
			"name":"2_move",
			"samplers":[
				{
					"input":59,
					"interpolation":"LINEAR",
					"output":60
				},
				{
					"input":61,
					"interpolation":"STEP",
					"output":9
				},
				{
					"input":61,
					"interpolation":"STEP",
					"output":10
				},
				{
					"input":61,
					"interpolation":"LINEAR",
					"output":62
				},
				{
					"input":61,
					"interpolation":"STEP",
					"output":63
				},
				{
					"input":61,
					"interpolation":"STEP",
					"output":13
				},
				{
					"input":61,
					"interpolation":"LINEAR",
					"output":64
				},
				{
					"input":61,
					"interpolation":"STEP",
					"output":65
				},
				{
					"input":61,
					"interpolation":"STEP",
					"output":66
				},
				{
					"input":61,
					"interpolation":"LINEAR",
					"output":67
				},
				{
					"input":61,
					"interpolation":"STEP",
					"output":68
				},
				{
					"input":61,
					"interpolation":"STEP",
					"output":16
				},
				{
					"input":59,
					"interpolation":"LINEAR",
					"output":69
				},
				{
					"input":59,
					"interpolation":"LINEAR",
					"output":70
				},
				{
					"input":61,
					"interpolation":"STEP",
					"output":71
				},
				{
					"input":59,
					"interpolation":"LINEAR",
					"output":72
				},
				{
					"input":59,
					"interpolation":"LINEAR",
					"output":73
				},
				{
					"input":61,
					"interpolation":"STEP",
					"output":74
				},
				{
					"input":61,
					"interpolation":"LINEAR",
					"output":75
				},
				{
					"input":59,
					"interpolation":"LINEAR",
					"output":76
				},
				{
					"input":61,
					"interpolation":"STEP",
					"output":28
				},
				{
					"input":61,
					"interpolation":"LINEAR",
					"output":77
				},
				{
					"input":59,
					"interpolation":"LINEAR",
					"output":78
				},
				{
					"input":61,
					"interpolation":"LINEAR",
					"output":79
				},
				{
					"input":61,
					"interpolation":"LINEAR",
					"output":80
				},
				{
					"input":59,
					"interpolation":"LINEAR",
					"output":81
				},
				{
					"input":61,
					"interpolation":"LINEAR",
					"output":82
				},
				{
					"input":61,
					"interpolation":"LINEAR",
					"output":83
				},
				{
					"input":59,
					"interpolation":"LINEAR",
					"output":84
				},
				{
					"input":61,
					"interpolation":"LINEAR",
					"output":85
				},
				{
					"input":59,
					"interpolation":"LINEAR",
					"output":86
				},
				{
					"input":59,
					"interpolation":"LINEAR",
					"output":87
				},
				{
					"input":61,
					"interpolation":"STEP",
					"output":88
				},
				{
					"input":59,
					"interpolation":"LINEAR",
					"output":89
				},
				{
					"input":61,
					"interpolation":"STEP",
					"output":90
				},
				{
					"input":61,
					"interpolation":"STEP",
					"output":91
				}
			]
		},
		{
			"channels":[
				{
					"sampler":0,
					"target":{
						"node":9,
						"path":"translation"
					}
				},
				{
					"sampler":1,
					"target":{
						"node":9,
						"path":"rotation"
					}
				},
				{
					"sampler":2,
					"target":{
						"node":9,
						"path":"scale"
					}
				},
				{
					"sampler":3,
					"target":{
						"node":4,
						"path":"translation"
					}
				},
				{
					"sampler":4,
					"target":{
						"node":4,
						"path":"rotation"
					}
				},
				{
					"sampler":5,
					"target":{
						"node":4,
						"path":"scale"
					}
				},
				{
					"sampler":6,
					"target":{
						"node":1,
						"path":"translation"
					}
				},
				{
					"sampler":7,
					"target":{
						"node":1,
						"path":"rotation"
					}
				},
				{
					"sampler":8,
					"target":{
						"node":1,
						"path":"scale"
					}
				},
				{
					"sampler":9,
					"target":{
						"node":0,
						"path":"translation"
					}
				},
				{
					"sampler":10,
					"target":{
						"node":0,
						"path":"rotation"
					}
				},
				{
					"sampler":11,
					"target":{
						"node":0,
						"path":"scale"
					}
				},
				{
					"sampler":12,
					"target":{
						"node":2,
						"path":"translation"
					}
				},
				{
					"sampler":13,
					"target":{
						"node":2,
						"path":"rotation"
					}
				},
				{
					"sampler":14,
					"target":{
						"node":2,
						"path":"scale"
					}
				},
				{
					"sampler":15,
					"target":{
						"node":3,
						"path":"translation"
					}
				},
				{
					"sampler":16,
					"target":{
						"node":3,
						"path":"rotation"
					}
				},
				{
					"sampler":17,
					"target":{
						"node":3,
						"path":"scale"
					}
				},
				{
					"sampler":18,
					"target":{
						"node":6,
						"path":"translation"
					}
				},
				{
					"sampler":19,
					"target":{
						"node":6,
						"path":"rotation"
					}
				},
				{
					"sampler":20,
					"target":{
						"node":6,
						"path":"scale"
					}
				},
				{
					"sampler":21,
					"target":{
						"node":5,
						"path":"translation"
					}
				},
				{
					"sampler":22,
					"target":{
						"node":5,
						"path":"rotation"
					}
				},
				{
					"sampler":23,
					"target":{
						"node":5,
						"path":"scale"
					}
				},
				{
					"sampler":24,
					"target":{
						"node":8,
						"path":"translation"
					}
				},
				{
					"sampler":25,
					"target":{
						"node":8,
						"path":"rotation"
					}
				},
				{
					"sampler":26,
					"target":{
						"node":8,
						"path":"scale"
					}
				},
				{
					"sampler":27,
					"target":{
						"node":7,
						"path":"translation"
					}
				},
				{
					"sampler":28,
					"target":{
						"node":7,
						"path":"rotation"
					}
				},
				{
					"sampler":29,
					"target":{
						"node":7,
						"path":"scale"
					}
				},
				{
					"sampler":30,
					"target":{
						"node":10,
						"path":"translation"
					}
				},
				{
					"sampler":31,
					"target":{
						"node":10,
						"path":"rotation"
					}
				},
				{
					"sampler":32,
					"target":{
						"node":10,
						"path":"scale"
					}
				},
				{
					"sampler":33,
					"target":{
						"node":11,
						"path":"translation"
					}
				},
				{
					"sampler":34,
					"target":{
						"node":11,
						"path":"rotation"
					}
				},
				{
					"sampler":35,
					"target":{
						"node":11,
						"path":"scale"
					}
				}
			],
			"name":"3_attack",
			"samplers":[
				{
					"input":92,
					"interpolation":"STEP",
					"output":8
				},
				{
					"input":92,
					"interpolation":"STEP",
					"output":9
				},
				{
					"input":92,
					"interpolation":"STEP",
					"output":10
				},
				{
					"input":92,
					"interpolation":"STEP",
					"output":11
				},
				{
					"input":93,
					"interpolation":"LINEAR",
					"output":94
				},
				{
					"input":92,
					"interpolation":"STEP",
					"output":13
				},
				{
					"input":92,
					"interpolation":"STEP",
					"output":95
				},
				{
					"input":93,
					"interpolation":"LINEAR",
					"output":96
				},
				{
					"input":92,
					"interpolation":"STEP",
					"output":97
				},
				{
					"input":92,
					"interpolation":"STEP",
					"output":98
				},
				{
					"input":92,
					"interpolation":"STEP",
					"output":99
				},
				{
					"input":92,
					"interpolation":"STEP",
					"output":100
				},
				{
					"input":93,
					"interpolation":"LINEAR",
					"output":101
				},
				{
					"input":93,
					"interpolation":"LINEAR",
					"output":102
				},
				{
					"input":92,
					"interpolation":"STEP",
					"output":103
				},
				{
					"input":93,
					"interpolation":"LINEAR",
					"output":104
				},
				{
					"input":93,
					"interpolation":"LINEAR",
					"output":105
				},
				{
					"input":92,
					"interpolation":"STEP",
					"output":49
				},
				{
					"input":92,
					"interpolation":"STEP",
					"output":26
				},
				{
					"input":92,
					"interpolation":"STEP",
					"output":106
				},
				{
					"input":92,
					"interpolation":"STEP",
					"output":107
				},
				{
					"input":92,
					"interpolation":"STEP",
					"output":108
				},
				{
					"input":92,
					"interpolation":"STEP",
					"output":109
				},
				{
					"input":92,
					"interpolation":"STEP",
					"output":110
				},
				{
					"input":92,
					"interpolation":"STEP",
					"output":32
				},
				{
					"input":92,
					"interpolation":"STEP",
					"output":111
				},
				{
					"input":92,
					"interpolation":"STEP",
					"output":112
				},
				{
					"input":92,
					"interpolation":"STEP",
					"output":113
				},
				{
					"input":92,
					"interpolation":"STEP",
					"output":114
				},
				{
					"input":92,
					"interpolation":"STEP",
					"output":115
				},
				{
					"input":93,
					"interpolation":"LINEAR",
					"output":116
				},
				{
					"input":93,
					"interpolation":"LINEAR",
					"output":117
				},
				{
					"input":92,
					"interpolation":"STEP",
					"output":118
				},
				{
					"input":93,
					"interpolation":"LINEAR",
					"output":119
				},
				{
					"input":93,
					"interpolation":"LINEAR",
					"output":120
				},
				{
					"input":92,
					"interpolation":"STEP",
					"output":121
				}
			]
		}
	],
	"materials":[
		{
			"doubleSided":true,
			"name":"body",
			"pbrMetallicRoughness":{
				"baseColorTexture":{
					"index":0
				},
				"metallicFactor":0,
				"roughnessFactor":0.5
			}
		}
	],
	"meshes":[
		{
			"name":"1_body",
			"primitives":[
				{
					"attributes":{
						"POSITION":0,
						"NORMAL":1,
						"TEXCOORD_0":2,
						"JOINTS_0":3,
						"WEIGHTS_0":4
					},
					"indices":5,
					"material":0
				}
			]
		}
	],
	"textures":[
		{
			"sampler":0,
			"source":0
		}
	],
	"images":[
		{
			"mimeType":"image/png",
			"name":"body",
			"uri":"body.png"
		}
	],
	"skins":[
		{
			"inverseBindMatrices":6,
			"joints":[
				9,
				4,
				1,
				0,
				2,
				3,
				6,
				5,
				8,
				7,
				10,
				11
			],
			"name":"Armature"
		}
	],
	"accessors":[
		{
			"bufferView":0,
			"componentType":5126,
			"count":196,
			"max":[
				1.3599785566329956,
				1.9901257753372192,
				0.7262169718742371
			],
			"min":[
				-1.359978437423706,
				-0.04158004745841026,
				-0.7225819230079651
			],
			"type":"VEC3"
		},
		{
			"bufferView":1,
			"componentType":5126,
			"count":196,
			"type":"VEC3"
		},
		{
			"bufferView":2,
			"componentType":5126,
			"count":196,
			"type":"VEC2"
		},
		{
			"bufferView":3,
			"componentType":5121,
			"count":196,
			"type":"VEC4"
		},
		{
			"bufferView":4,
			"componentType":5126,
			"count":196,
			"type":"VEC4"
		},
		{
			"bufferView":5,
			"componentType":5123,
			"count":1068,
			"type":"SCALAR"
		},
		{
			"bufferView":6,
			"componentType":5126,
			"count":12,
			"type":"MAT4"
		},
		{
			"bufferView":7,
			"componentType":5126,
			"count":2,
			"max":[
				0.16666666666666666
			],
			"min":[
				0.041666666666666664
			],
			"type":"SCALAR"
		},
		{
			"bufferView":8,
			"componentType":5126,
			"count":2,
			"type":"VEC3"
		},
		{
			"bufferView":9,
			"componentType":5126,
			"count":2,
			"type":"VEC4"
		},
		{
			"bufferView":10,
			"componentType":5126,
			"count":2,
			"type":"VEC3"
		},
		{
			"bufferView":11,
			"componentType":5126,
			"count":2,
			"type":"VEC3"
		},
		{
			"bufferView":12,
			"componentType":5126,
			"count":2,
			"type":"VEC4"
		},
		{
			"bufferView":13,
			"componentType":5126,
			"count":2,
			"type":"VEC3"
		},
		{
			"bufferView":14,
			"componentType":5126,
			"count":2,
			"type":"VEC3"
		},
		{
			"bufferView":15,
			"componentType":5126,
			"count":2,
			"type":"VEC4"
		},
		{
			"bufferView":16,
			"componentType":5126,
			"count":2,
			"type":"VEC3"
		},
		{
			"bufferView":17,
			"componentType":5126,
			"count":2,
			"type":"VEC3"
		},
		{
			"bufferView":18,
			"componentType":5126,
			"count":2,
			"type":"VEC4"
		},
		{
			"bufferView":19,
			"componentType":5126,
			"count":2,
			"type":"VEC3"
		},
		{
			"bufferView":20,
			"componentType":5126,
			"count":2,
			"type":"VEC3"
		},
		{
			"bufferView":21,
			"componentType":5126,
			"count":2,
			"type":"VEC4"
		},
		{
			"bufferView":22,
			"componentType":5126,
			"count":2,
			"type":"VEC3"
		},
		{
			"bufferView":23,
			"componentType":5126,
			"count":2,
			"type":"VEC3"
		},
		{
			"bufferView":24,
			"componentType":5126,
			"count":2,
			"type":"VEC4"
		},
		{
			"bufferView":25,
			"componentType":5126,
			"count":2,
			"type":"VEC3"
		},
		{
			"bufferView":26,
			"componentType":5126,
			"count":2,
			"type":"VEC3"
		},
		{
			"bufferView":27,
			"componentType":5126,
			"count":2,
			"type":"VEC4"
		},
		{
			"bufferView":28,
			"componentType":5126,
			"count":2,
			"type":"VEC3"
		},
		{
			"bufferView":29,
			"componentType":5126,
			"count":2,
			"type":"VEC3"
		},
		{
			"bufferView":30,
			"componentType":5126,
			"count":2,
			"type":"VEC4"
		},
		{
			"bufferView":31,
			"componentType":5126,
			"count":2,
			"type":"VEC3"
		},
		{
			"bufferView":32,
			"componentType":5126,
			"count":2,
			"type":"VEC3"
		},
		{
			"bufferView":33,
			"componentType":5126,
			"count":2,
			"type":"VEC4"
		},
		{
			"bufferView":34,
			"componentType":5126,
			"count":2,
			"type":"VEC3"
		},
		{
			"bufferView":35,
			"componentType":5126,
			"count":2,
			"type":"VEC3"
		},
		{
			"bufferView":36,
			"componentType":5126,
			"count":2,
			"type":"VEC4"
		},
		{
			"bufferView":37,
			"componentType":5126,
			"count":2,
			"type":"VEC3"
		},
		{
			"bufferView":38,
			"componentType":5126,
			"count":2,
			"type":"VEC3"
		},
		{
			"bufferView":39,
			"componentType":5126,
			"count":2,
			"type":"VEC4"
		},
		{
			"bufferView":40,
			"componentType":5126,
			"count":2,
			"type":"VEC3"
		},
		{
			"bufferView":41,
			"componentType":5126,
			"count":2,
			"type":"VEC3"
		},
		{
			"bufferView":42,
			"componentType":5126,
			"count":2,
			"type":"VEC4"
		},
		{
			"bufferView":43,
			"componentType":5126,
			"count":2,
			"max":[
				2.5
			],
			"min":[
				0.041666666666666664
			],
			"type":"SCALAR"
		},
		{
			"bufferView":44,
			"componentType":5126,
			"count":60,
			"max":[
				2.5
			],
			"min":[
				0.041666666666666664
			],
			"type":"SCALAR"
		},
		{
			"bufferView":45,
			"componentType":5126,
			"count":60,
			"type":"VEC4"
		},
		{
			"bufferView":46,
			"componentType":5126,
			"count":60,
			"type":"VEC4"
		},
		{
			"bufferView":47,
			"componentType":5126,
			"count":2,
			"type":"VEC3"
		},
		{
			"bufferView":48,
			"componentType":5126,
			"count":2,
			"type":"VEC4"
		},
		{
			"bufferView":49,
			"componentType":5126,
			"count":2,
			"type":"VEC3"
		},
		{
			"bufferView":50,
			"componentType":5126,
			"count":2,
			"type":"VEC3"
		},
		{
			"bufferView":51,
			"componentType":5126,
			"count":2,
			"type":"VEC4"
		},
		{
			"bufferView":52,
			"componentType":5126,
			"count":2,
			"type":"VEC3"
		},
		{
			"bufferView":53,
			"componentType":5126,
			"count":60,
			"type":"VEC3"
		},
		{
			"bufferView":54,
			"componentType":5126,
			"count":2,
			"type":"VEC4"
		},
		{
			"bufferView":55,
			"componentType":5126,
			"count":2,
			"type":"VEC3"
		},
		{
			"bufferView":56,
			"componentType":5126,
			"count":60,
			"type":"VEC3"
		},
		{
			"bufferView":57,
			"componentType":5126,
			"count":2,
			"type":"VEC4"
		},
		{
			"bufferView":58,
			"componentType":5126,
			"count":2,
			"type":"VEC3"
		},
		{
			"bufferView":59,
			"componentType":5126,
			"count":30,
			"max":[
				1.25
			],
			"min":[
				0.041666666666666664
			],
			"type":"SCALAR"
		},
		{
			"bufferView":60,
			"componentType":5126,
			"count":30,
			"type":"VEC3"
		},
		{
			"bufferView":61,
			"componentType":5126,
			"count":2,
			"max":[
				1.25
			],
			"min":[
				0.041666666666666664
			],
			"type":"SCALAR"
		},
		{
			"bufferView":62,
			"componentType":5126,
			"count":2,
			"type":"VEC3"
		},
		{
			"bufferView":63,
			"componentType":5126,
			"count":2,
			"type":"VEC4"
		},
		{
			"bufferView":64,
			"componentType":5126,
			"count":2,
			"type":"VEC3"
		},
		{
			"bufferView":65,
			"componentType":5126,
			"count":2,
			"type":"VEC4"
		},
		{
			"bufferView":66,
			"componentType":5126,
			"count":2,
			"type":"VEC3"
		},
		{
			"bufferView":67,
			"componentType":5126,
			"count":2,
			"type":"VEC3"
		},
		{
			"bufferView":68,
			"componentType":5126,
			"count":2,
			"type":"VEC4"
		},
		{
			"bufferView":69,
			"componentType":5126,
			"count":30,
			"type":"VEC3"
		},
		{
			"bufferView":70,
			"componentType":5126,
			"count":30,
			"type":"VEC4"
		},
		{
			"bufferView":71,
			"componentType":5126,
			"count":2,
			"type":"VEC3"
		},
		{
			"bufferView":72,
			"componentType":5126,
			"count":30,
			"type":"VEC3"
		},
		{
			"bufferView":73,
			"componentType":5126,
			"count":30,
			"type":"VEC4"
		},
		{
			"bufferView":74,
			"componentType":5126,
			"count":2,
			"type":"VEC3"
		},
		{
			"bufferView":75,
			"componentType":5126,
			"count":2,
			"type":"VEC3"
		},
		{
			"bufferView":76,
			"componentType":5126,
			"count":30,
			"type":"VEC4"
		},
		{
			"bufferView":77,
			"componentType":5126,
			"count":2,
			"type":"VEC3"
		},
		{
			"bufferView":78,
			"componentType":5126,
			"count":30,
			"type":"VEC4"
		},
		{
			"bufferView":79,
			"componentType":5126,
			"count":2,
			"type":"VEC3"
		},
		{
			"bufferView":80,
			"componentType":5126,
			"count":2,
			"type":"VEC3"
		},
		{
			"bufferView":81,
			"componentType":5126,
			"count":30,
			"type":"VEC4"
		},
		{
			"bufferView":82,
			"componentType":5126,
			"count":2,
			"type":"VEC3"
		},
		{
			"bufferView":83,
			"componentType":5126,
			"count":2,
			"type":"VEC3"
		},
		{
			"bufferView":84,
			"componentType":5126,
			"count":30,
			"type":"VEC4"
		},
		{
			"bufferView":85,
			"componentType":5126,
			"count":2,
			"type":"VEC3"
		},
		{
			"bufferView":86,
			"componentType":5126,
			"count":30,
			"type":"VEC3"
		},
		{
			"bufferView":87,
			"componentType":5126,
			"count":30,
			"type":"VEC4"
		},
		{
			"bufferView":88,
			"componentType":5126,
			"count":2,
			"type":"VEC3"
		},
		{
			"bufferView":89,
			"componentType":5126,
			"count":30,
			"type":"VEC3"
		},
		{
			"bufferView":90,
			"componentType":5126,
			"count":2,
			"type":"VEC4"
		},
		{
			"bufferView":91,
			"componentType":5126,
			"count":2,
			"type":"VEC3"
		},
		{
			"bufferView":92,
			"componentType":5126,
			"count":2,
			"max":[
				0.8333333333333334
			],
			"min":[
				0.041666666666666664
			],
			"type":"SCALAR"
		},
		{
			"bufferView":93,
			"componentType":5126,
			"count":20,
			"max":[
				0.8333333333333334
			],
			"min":[
				0.041666666666666664
			],
			"type":"SCALAR"
		},
		{
			"bufferView":94,
			"componentType":5126,
			"count":20,
			"type":"VEC4"
		},
		{
			"bufferView":95,
			"componentType":5126,
			"count":2,
			"type":"VEC3"
		},
		{
			"bufferView":96,
			"componentType":5126,
			"count":20,
			"type":"VEC4"
		},
		{
			"bufferView":97,
			"componentType":5126,
			"count":2,
			"type":"VEC3"
		},
		{
			"bufferView":98,
			"componentType":5126,
			"count":2,
			"type":"VEC3"
		},
		{
			"bufferView":99,
			"componentType":5126,
			"count":2,
			"type":"VEC4"
		},
		{
			"bufferView":100,
			"componentType":5126,
			"count":2,
			"type":"VEC3"
		},
		{
			"bufferView":101,
			"componentType":5126,
			"count":20,
			"type":"VEC3"
		},
		{
			"bufferView":102,
			"componentType":5126,
			"count":20,
			"type":"VEC4"
		},
		{
			"bufferView":103,
			"componentType":5126,
			"count":2,
			"type":"VEC3"
		},
		{
			"bufferView":104,
			"componentType":5126,
			"count":20,
			"type":"VEC3"
		},
		{
			"bufferView":105,
			"componentType":5126,
			"count":20,
			"type":"VEC4"
		},
		{
			"bufferView":106,
			"componentType":5126,
			"count":2,
			"type":"VEC4"
		},
		{
			"bufferView":107,
			"componentType":5126,
			"count":2,
			"type":"VEC3"
		},
		{
			"bufferView":108,
			"componentType":5126,
			"count":2,
			"type":"VEC3"
		},
		{
			"bufferView":109,
			"componentType":5126,
			"count":2,
			"type":"VEC4"
		},
		{
			"bufferView":110,
			"componentType":5126,
			"count":2,
			"type":"VEC3"
		},
		{
			"bufferView":111,
			"componentType":5126,
			"count":2,
			"type":"VEC4"
		},
		{
			"bufferView":112,
			"componentType":5126,
			"count":2,
			"type":"VEC3"
		},
		{
			"bufferView":113,
			"componentType":5126,
			"count":2,
			"type":"VEC3"
		},
		{
			"bufferView":114,
			"componentType":5126,
			"count":2,
			"type":"VEC4"
		},
		{
			"bufferView":115,
			"componentType":5126,
			"count":2,
			"type":"VEC3"
		},
		{
			"bufferView":116,
			"componentType":5126,
			"count":20,
			"type":"VEC3"
		},
		{
			"bufferView":117,
			"componentType":5126,
			"count":20,
			"type":"VEC4"
		},
		{
			"bufferView":118,
			"componentType":5126,
			"count":2,
			"type":"VEC3"
		},
		{
			"bufferView":119,
			"componentType":5126,
			"count":20,
			"type":"VEC3"
		},
		{
			"bufferView":120,
			"componentType":5126,
			"count":20,
			"type":"VEC4"
		},
		{
			"bufferView":121,
			"componentType":5126,
			"count":2,
			"type":"VEC3"
		}
	],
	"bufferViews":[
		{
			"buffer":0,
			"byteLength":2352,
			"byteOffset":0,
			"target":34962
		},
		{
			"buffer":0,
			"byteLength":2352,
			"byteOffset":2352,
			"target":34962
		},
		{
			"buffer":0,
			"byteLength":1568,
			"byteOffset":4704,
			"target":34962
		},
		{
			"buffer":0,
			"byteLength":784,
			"byteOffset":6272,
			"target":34962
		},
		{
			"buffer":0,
			"byteLength":3136,
			"byteOffset":7056,
			"target":34962
		},
		{
			"buffer":0,
			"byteLength":2136,
			"byteOffset":10192,
			"target":34963
		},
		{
			"buffer":0,
			"byteLength":768,
			"byteOffset":12328
		},
		{
			"buffer":0,
			"byteLength":8,
			"byteOffset":13096
		},
		{
			"buffer":0,
			"byteLength":24,
			"byteOffset":13104
		},
		{
			"buffer":0,
			"byteLength":32,
			"byteOffset":13128
		},
		{
			"buffer":0,
			"byteLength":24,
			"byteOffset":13160
		},
		{
			"buffer":0,
			"byteLength":24,
			"byteOffset":13184
		},
		{
			"buffer":0,
			"byteLength":32,
			"byteOffset":13208
		},
		{
			"buffer":0,
			"byteLength":24,
			"byteOffset":13240
		},
		{
			"buffer":0,
			"byteLength":24,
			"byteOffset":13264
		},
		{
			"buffer":0,
			"byteLength":32,
			"byteOffset":13288
		},
		{
			"buffer":0,
			"byteLength":24,
			"byteOffset":13320
		},
		{
			"buffer":0,
			"byteLength":24,
			"byteOffset":13344
		},
		{
			"buffer":0,
			"byteLength":32,
			"byteOffset":13368
		},
		{
			"buffer":0,
			"byteLength":24,
			"byteOffset":13400
		},
		{
			"buffer":0,
			"byteLength":24,
			"byteOffset":13424
		},
		{
			"buffer":0,
			"byteLength":32,
			"byteOffset":13448
		},
		{
			"buffer":0,
			"byteLength":24,
			"byteOffset":13480
		},
		{
			"buffer":0,
			"byteLength":24,
			"byteOffset":13504
		},
		{
			"buffer":0,
			"byteLength":32,
			"byteOffset":13528
		},
		{
			"buffer":0,
			"byteLength":24,
			"byteOffset":13560
		},
		{
			"buffer":0,
			"byteLength":24,
			"byteOffset":13584
		},
		{
			"buffer":0,
			"byteLength":32,
			"byteOffset":13608
		},
		{
			"buffer":0,
			"byteLength":24,
			"byteOffset":13640
		},
		{
			"buffer":0,
			"byteLength":24,
			"byteOffset":13664
		},
		{
			"buffer":0,
			"byteLength":32,
			"byteOffset":13688
		},
		{
			"buffer":0,
			"byteLength":24,
			"byteOffset":13720
		},
		{
			"buffer":0,
			"byteLength":24,
			"byteOffset":13744
		},
		{
			"buffer":0,
			"byteLength":32,
			"byteOffset":13768
		},
		{
			"buffer":0,
			"byteLength":24,
			"byteOffset":13800
		},
		{
			"buffer":0,
			"byteLength":24,
			"byteOffset":13824
		},
		{
			"buffer":0,
			"byteLength":32,
			"byteOffset":13848
		},
		{
			"buffer":0,
			"byteLength":24,
			"byteOffset":13880
		},
		{
			"buffer":0,
			"byteLength":24,
			"byteOffset":13904
		},
		{
			"buffer":0,
			"byteLength":32,
			"byteOffset":13928
		},
		{
			"buffer":0,
			"byteLength":24,
			"byteOffset":13960
		},
		{
			"buffer":0,
			"byteLength":24,
			"byteOffset":13984
		},
		{
			"buffer":0,
			"byteLength":32,
			"byteOffset":14008
		},
		{
			"buffer":0,
			"byteLength":8,
			"byteOffset":14040
		},
		{
			"buffer":0,
			"byteLength":240,
			"byteOffset":14048
		},
		{
			"buffer":0,
			"byteLength":960,
			"byteOffset":14288
		},
		{
			"buffer":0,
			"byteLength":960,
			"byteOffset":15248
		},
		{
			"buffer":0,
			"byteLength":24,
			"byteOffset":16208
		},
		{
			"buffer":0,
			"byteLength":32,
			"byteOffset":16232
		},
		{
			"buffer":0,
			"byteLength":24,
			"byteOffset":16264
		},
		{
			"buffer":0,
			"byteLength":24,
			"byteOffset":16288
		},
		{
			"buffer":0,
			"byteLength":32,
			"byteOffset":16312
		},
		{
			"buffer":0,
			"byteLength":24,
			"byteOffset":16344
		},
		{
			"buffer":0,
			"byteLength":720,
			"byteOffset":16368
		},
		{
			"buffer":0,
			"byteLength":32,
			"byteOffset":17088
		},
		{
			"buffer":0,
			"byteLength":24,
			"byteOffset":17120
		},
		{
			"buffer":0,
			"byteLength":720,
			"byteOffset":17144
		},
		{
			"buffer":0,
			"byteLength":32,
			"byteOffset":17864
		},
		{
			"buffer":0,
			"byteLength":24,
			"byteOffset":17896
		},
		{
			"buffer":0,
			"byteLength":120,
			"byteOffset":17920
		},
		{
			"buffer":0,
			"byteLength":360,
			"byteOffset":18040
		},
		{
			"buffer":0,
			"byteLength":8,
			"byteOffset":18400
		},
		{
			"buffer":0,
			"byteLength":24,
			"byteOffset":18408
		},
		{
			"buffer":0,
			"byteLength":32,
			"byteOffset":18432
		},
		{
			"buffer":0,
			"byteLength":24,
			"byteOffset":18464
		},
		{
			"buffer":0,
			"byteLength":32,
			"byteOffset":18488
		},
		{
			"buffer":0,
			"byteLength":24,
			"byteOffset":18520
		},
		{
			"buffer":0,
			"byteLength":24,
			"byteOffset":18544
		},
		{
			"buffer":0,
			"byteLength":32,
			"byteOffset":18568
		},
		{
			"buffer":0,
			"byteLength":360,
			"byteOffset":18600
		},
		{
			"buffer":0,
			"byteLength":480,
			"byteOffset":18960
		},
		{
			"buffer":0,
			"byteLength":24,
			"byteOffset":19440
		},
		{
			"buffer":0,
			"byteLength":360,
			"byteOffset":19464
		},
		{
			"buffer":0,
			"byteLength":480,
			"byteOffset":19824
		},
		{
			"buffer":0,
			"byteLength":24,
			"byteOffset":20304
		},
		{
			"buffer":0,
			"byteLength":24,
			"byteOffset":20328
		},
		{
			"buffer":0,
			"byteLength":480,
			"byteOffset":20352
		},
		{
			"buffer":0,
			"byteLength":24,
			"byteOffset":20832
		},
		{
			"buffer":0,
			"byteLength":480,
			"byteOffset":20856
		},
		{
			"buffer":0,
			"byteLength":24,
			"byteOffset":21336
		},
		{
			"buffer":0,
			"byteLength":24,
			"byteOffset":21360
		},
		{
			"buffer":0,
			"byteLength":480,
			"byteOffset":21384
		},
		{
			"buffer":0,
			"byteLength":24,
			"byteOffset":21864
		},
		{
			"buffer":0,
			"byteLength":24,
			"byteOffset":21888
		},
		{
			"buffer":0,
			"byteLength":480,
			"byteOffset":21912
		},
		{
			"buffer":0,
			"byteLength":24,
			"byteOffset":22392
		},
		{
			"buffer":0,
			"byteLength":360,
			"byteOffset":22416
		},
		{
			"buffer":0,
			"byteLength":480,
			"byteOffset":22776
		},
		{
			"buffer":0,
			"byteLength":24,
			"byteOffset":23256
		},
		{
			"buffer":0,
			"byteLength":360,
			"byteOffset":23280
		},
		{
			"buffer":0,
			"byteLength":32,
			"byteOffset":23640
		},
		{
			"buffer":0,
			"byteLength":24,
			"byteOffset":23672
		},
		{
			"buffer":0,
			"byteLength":8,
			"byteOffset":23696
		},
		{
			"buffer":0,
			"byteLength":80,
			"byteOffset":23704
		},
		{
			"buffer":0,
			"byteLength":320,
			"byteOffset":23784
		},
		{
			"buffer":0,
			"byteLength":24,
			"byteOffset":24104
		},
		{
			"buffer":0,
			"byteLength":320,
			"byteOffset":24128
		},
		{
			"buffer":0,
			"byteLength":24,
			"byteOffset":24448
		},
		{
			"buffer":0,
			"byteLength":24,
			"byteOffset":24472
		},
		{
			"buffer":0,
			"byteLength":32,
			"byteOffset":24496
		},
		{
			"buffer":0,
			"byteLength":24,
			"byteOffset":24528
		},
		{
			"buffer":0,
			"byteLength":240,
			"byteOffset":24552
		},
		{
			"buffer":0,
			"byteLength":320,
			"byteOffset":24792
		},
		{
			"buffer":0,
			"byteLength":24,
			"byteOffset":25112
		},
		{
			"buffer":0,
			"byteLength":240,
			"byteOffset":25136
		},
		{
			"buffer":0,
			"byteLength":320,
			"byteOffset":25376
		},
		{
			"buffer":0,
			"byteLength":32,
			"byteOffset":25696
		},
		{
			"buffer":0,
			"byteLength":24,
			"byteOffset":25728
		},
		{
			"buffer":0,
			"byteLength":24,
			"byteOffset":25752
		},
		{
			"buffer":0,
			"byteLength":32,
			"byteOffset":25776
		},
		{
			"buffer":0,
			"byteLength":24,
			"byteOffset":25808
		},
		{
			"buffer":0,
			"byteLength":32,
			"byteOffset":25832
		},
		{
			"buffer":0,
			"byteLength":24,
			"byteOffset":25864
		},
		{
			"buffer":0,
			"byteLength":24,
			"byteOffset":25888
		},
		{
			"buffer":0,
			"byteLength":32,
			"byteOffset":25912
		},
		{
			"buffer":0,
			"byteLength":24,
			"byteOffset":25944
		},
		{
			"buffer":0,
			"byteLength":240,
			"byteOffset":25968
		},
		{
			"buffer":0,
			"byteLength":320,
			"byteOffset":26208
		},
		{
			"buffer":0,
			"byteLength":24,
			"byteOffset":26528
		},
		{
			"buffer":0,
			"byteLength":240,
			"byteOffset":26552
		},
		{
			"buffer":0,
			"byteLength":320,
			"byteOffset":26792
		},
		{
			"buffer":0,
			"byteLength":24,
			"byteOffset":27112
		}
	],
	"samplers":[
		{
			"magFilter":9729,
			"minFilter":9987
		}
	],
	"buffers":[
		{
			"byteLength":27136,
			"uri":"greenman.bin"
		}
	]
}
